<svg width="42" height="40" viewBox="0 0 42 40" fill="none" xmlns="http://www.w3.org/2000/svg">
<path d="M20.1107 7.39404C19.9493 7.11733 19.5997 6.98246 19.3322 6.95483C19.0119 6.96003 18.7201 7.13811 18.5682 7.4209L15.4372 13.2455L17.0793 15.1161L18.5975 12.683C18.9204 12.1659 19.7732 12.1659 20.096 12.683L21.6144 15.1161L23.3972 13.0375L20.1107 7.39404Z" fill="#415167"/>
<path d="M24.8712 15.5962L24.3515 14.7021L22.2568 17.2304C22.084 17.4679 21.8335 17.623 21.5104 17.5927C21.2175 17.5823 20.9489 17.4262 20.7934 17.1767L19.3317 14.8305L17.8699 17.1767C17.7144 17.4263 17.4458 17.5823 17.1529 17.5927C17.1417 17.5936 17.1304 17.5936 17.1201 17.5936C16.8384 17.5936 16.5732 17.4592 16.4064 17.2304L14.4998 14.9614L6.1084 30.4857C5.96155 30.7604 5.96845 31.0933 6.12827 31.361C6.2881 31.6297 6.57667 31.7935 6.88765 31.7935H16.8496C16.5956 31.0756 16.6401 30.2742 17.0206 29.5982L24.8712 15.5962Z" fill="#415167"/>
<path d="M28.0922 16.3034C27.7781 15.7454 26.8583 15.7454 26.5441 16.3034L24.6943 19.5865L27.3182 22.4494L29.942 19.5865L28.0922 16.3034Z" fill="#415167"/>
<path d="M36.078 30.4724L30.8196 21.2075L27.9684 24.383C27.8001 24.5847 27.5513 24.7016 27.2887 24.7016C27.0262 24.7016 26.7774 24.5847 26.609 24.383L23.7578 21.2075L18.5584 30.4725C18.4038 30.7469 18.4064 31.0828 18.5653 31.3547C18.7242 31.6265 19.0144 31.7935 19.3288 31.7935H35.3075C35.6219 31.7935 35.9121 31.6265 36.0711 31.3546C36.23 31.0827 36.2326 30.7469 36.078 30.4724Z" fill="#415167"/>
</svg>
