<svg width="41" height="40" viewBox="0 0 41 40" fill="none" xmlns="http://www.w3.org/2000/svg">
<path d="M16.4041 24.9842C14.1408 21.1554 14.1355 17.175 14.3655 15.3229C9.06323 17.8303 5.8904 23.2134 8.02524 28.0386C10.54 28.2877 14.0659 27.5296 16.4041 24.9842Z" fill="#415167"/>
<path d="M16.9873 25.9103C14.922 28.0873 11.3746 29.3167 8.6673 29.1542C11.1392 32.7014 17.7149 34.2611 23.6379 30.8384C21.1018 30.2265 18.7101 28.4393 16.9873 25.9103Z" fill="#415167"/>
<path d="M23.1831 17.9603C19.6411 14.0611 19.3468 10.3406 19.8337 7.89819C16.174 9.98319 14.3869 15.3284 15.8209 20.7764C17.4207 27.0043 23.1082 31.7159 28.4426 29.3438C28.6085 27.5946 28.3891 23.6683 23.1831 17.9603Z" fill="#415167"/>
<path d="M33.0387 16.1894C31.4121 9.98314 25.9814 5.69401 21.0376 7.35117C20.3153 9.68528 20.4169 13.4383 23.991 17.2617C25.6122 19.1571 29.6197 23.6466 29.5448 28.7318C32.83 26.4356 34.3656 21.3667 33.0387 16.1894Z" fill="#415167"/>
</svg>
